<svg xmlns="http://www.w3.org/2000/svg" viewBox="0 0 173.32 352.22"><defs><style>.cls-1{fill:#fcd9ca;}.cls-2{fill:#3c3c3b;}.cls-3{fill:#1d1d1b;}.cls-4{fill:#383e8a;}.cls-5{fill:#fff;}.cls-6{fill:none;}.cls-7{fill:#fcea10;}.cls-8{fill:#878787;}</style></defs><g id="Capa_2" data-name="Capa 2"><g id="Capa_1-2" data-name="Capa 1"><path class="cls-1" d="M158.6,81.26a13.26,13.26,0,0,0-7.11,2.09C151.31,47.76,122.76,19,87.55,19s-63.94,29-63.94,64.7c0,.42,0,.84,0,1.26a13.63,13.63,0,0,0-8.91-3.42C6.59,81.51,0,89,0,98.19s6.59,16.67,14.72,16.67c5.55,0,10.39-3.48,12.89-8.63a64.77,64.77,0,0,0,27.48,33.18L48.2,235.52H127L119,140a64.73,64.73,0,0,0,27.83-32.06,14.19,14.19,0,0,0,11.76,6.69c8.13,0,14.72-7.47,14.72-16.68S166.73,81.26,158.6,81.26Z"/><path class="cls-2" d="M125.73,330.05H50.87c-9.41-31.74-14.61-67.28-16.49-108l106.34.08C142.41,245.5,135.29,290.1,125.73,330.05Z"/><circle class="cls-3" cx="65.91" cy="89.02" r="5.48"/><circle class="cls-3" cx="109.71" cy="89.02" r="5.48"/><path class="cls-4" d="M54.21,139.61C62,146.07,73.47,154,89.22,154c14.35,0,23.17-8,30.17-14,16.47,21.52,23.39,49,21.33,82.13l-106.46-.05C34,187.88,41.06,160.67,54.21,139.61Z"/><rect class="cls-3" x="50.83" y="335.33" width="74.94" height="16.89"/><rect class="cls-5" x="50.83" y="348.62" width="74.94" height="3.6"/><path class="cls-5" d="M68.21,345H78.44a4,4,0,0,1,4,4v3.11a0,0,0,0,1,0,0H64.23a0,0,0,0,1,0,0V349A4,4,0,0,1,68.21,345Z"/><path class="cls-5" d="M97.28,345h10.23a4,4,0,0,1,4,4v3.11a0,0,0,0,1,0,0H93.3a0,0,0,0,1,0,0V349A4,4,0,0,1,97.28,345Z"/><rect class="cls-5" x="83.63" y="111.62" width="6.76" height="6.52"/><path class="cls-5" d="M151.31,74.88c-.12-28.58-8.53-55.63-56.44-58V0H84V13.13L70,3.07l-6.39,8.85,7.91,5.71c-40.9,5.18-48.17,30.8-48.06,57.73,0,1.12.05,2.23.13,3.33h.23v24.89h11V68.16h-.14V65.5a12.93,12.93,0,0,1,6.41-11.13l16.09-9.58A27.35,27.35,0,0,1,71,41l20.27-.08h0l12.21,0a27.42,27.42,0,0,1,7.12.91c2.6,4.41,7,10.73,11.85,13.12s11.74,3.83,16.21,4.57A12.71,12.71,0,0,1,140,65.1l0,3.94v34.54h11V78.22h.17C151.27,77.11,151.31,76,151.31,74.88Z"/><path class="cls-5" d="M94.74,106.82l-3.43-.55a30.35,30.35,0,0,0-9.56,0l-3.37.54c-3.59.62-6.54,2.93-6.54,6.55v18.16a6.54,6.54,0,0,0,6.54,6.55H94.74a6.54,6.54,0,0,0,6.54-6.55V113.37C101.28,109.75,98.6,107.5,94.74,106.82Zm3.17,16.59a5,5,0,0,1-5,5H80.26a5,5,0,0,1-5.05-5v-8c0-2.78,2.26-4.47,5.05-5a30.11,30.11,0,0,1,12.54,0l.07,0c2.84.6,5,2.26,5,5Z"/><polygon class="cls-6" points="119.7 330.05 56.27 330.05 42.29 222.03 132.4 222.11 119.7 330.05"/><path class="cls-7" d="M105.81,180c.08-.36.16-.78.26-1.3.75-3.92-1.42-10.85-1.42-10.85-1.14-3.07-2.79-3.79-4.93-2.18l-6.1,4.6A23.36,23.36,0,0,1,105.81,180Z"/><path class="cls-7" d="M68.75,180.09a23.35,23.35,0,0,1,12.19-9.77l-6.11-4.61c-2.14-1.61-3.78-.89-4.93,2.18,0,0-2.17,6.93-1.42,10.85C68.59,179.28,68.67,179.72,68.75,180.09Z"/><path class="cls-7" d="M92.86,172.7v5a1.07,1.07,0,0,1-2.13,0v-5.53a17.58,17.58,0,0,0-2.42-.3v8.28a1.06,1.06,0,0,1-2.12,0v-8.28a17.6,17.6,0,0,0-2.42.32v5.51a1.07,1.07,0,0,1-2.13,0v-4.94c-7.74,2.65-13.36,10.42-13.36,17.94,0,9.27,8.51,14.65,19,14.65s19-5.38,19-14.65C106.32,183.12,100.65,175.32,92.86,172.7Zm-15.16,26a2.07,2.07,0,1,1,2.06-2.06A2.07,2.07,0,0,1,77.7,198.68Zm0-5.37a4,4,0,1,1,4-4A4,4,0,0,1,77.7,193.31Zm10,3.64a3.12,3.12,0,0,1-3-3.18c0-1.75,1.37-1.79,3-1.79s3.05,0,3.05,1.79A3.12,3.12,0,0,1,87.74,197Zm9.33,1.73a2.07,2.07,0,1,1,2.07-2.06A2.06,2.06,0,0,1,97.07,198.68Zm0-5.37a4,4,0,1,1,4-4A4,4,0,0,1,97.07,193.31Z"/><rect class="cls-7" x="50.83" y="329.46" width="74.76" height="6.03"/><rect class="cls-8" x="90.98" y="246.99" width="7.17" height="5.62"/><rect class="cls-8" x="90.98" y="234.32" width="7.17" height="5.62"/><rect class="cls-8" x="76.84" y="221.65" width="7.17" height="5.62"/><rect class="cls-8" x="90.98" y="310.35" width="7.17" height="5.62"/><rect class="cls-8" x="90.98" y="272.33" width="7.17" height="5.62"/><rect class="cls-8" x="90.98" y="297.68" width="7.17" height="5.62"/><rect class="cls-8" x="90.98" y="221.65" width="7.17" height="5.62"/><rect class="cls-8" x="90.98" y="285.01" width="7.17" height="5.62"/><rect class="cls-8" x="76.84" y="272.33" width="7.17" height="5.62"/><rect class="cls-8" x="76.84" y="246.99" width="7.17" height="5.62"/><rect class="cls-8" x="76.84" y="259.66" width="7.17" height="5.62"/><rect class="cls-8" x="76.84" y="234.32" width="7.17" height="5.62"/><rect class="cls-8" x="76.84" y="297.68" width="7.17" height="5.62"/><rect class="cls-8" x="105.13" y="221.65" width="7.17" height="5.62"/><rect class="cls-8" x="76.84" y="310.35" width="7.17" height="5.62"/><rect class="cls-8" x="76.84" y="285.01" width="7.17" height="5.62"/><rect class="cls-8" x="90.98" y="259.66" width="7.17" height="5.62"/><rect class="cls-8" x="119.27" y="259.66" width="7.17" height="5.62"/><rect class="cls-8" x="119.27" y="272.33" width="7.17" height="5.62"/><rect class="cls-8" x="119.27" y="285.01" width="7.17" height="5.62"/><rect class="cls-8" x="119.27" y="246.99" width="7.17" height="5.62"/><rect class="cls-8" x="133.42" y="221.65" width="7.17" height="5.62"/><rect class="cls-8" x="105.13" y="234.32" width="7.17" height="5.62"/><rect class="cls-8" x="119.27" y="310.35" width="7.17" height="5.62"/><rect class="cls-8" x="119.27" y="297.68" width="7.17" height="5.62"/><rect class="cls-8" x="119.27" y="234.32" width="7.17" height="5.62"/><rect class="cls-8" x="105.13" y="272.33" width="7.17" height="5.62"/><rect class="cls-8" x="105.13" y="259.66" width="7.17" height="5.62"/><rect class="cls-8" x="119.27" y="221.65" width="7.17" height="5.62"/><rect class="cls-8" x="105.13" y="246.99" width="7.17" height="5.62"/><rect class="cls-8" x="105.13" y="297.68" width="7.17" height="5.62"/><rect class="cls-8" x="105.13" y="285.01" width="7.17" height="5.62"/><rect class="cls-8" x="105.13" y="310.35" width="7.17" height="5.62"/><rect class="cls-8" x="90.98" y="323.02" width="7.17" height="4.47"/><path class="cls-8" d="M41.57,285h-.45l.45,2.59Z"/><path class="cls-8" d="M55.72,323H49.59c.42,1.49.84,3,1.28,4.47h4.85Z"/><path class="cls-8" d="M41.57,221.65H34.49c.1,1.88.19,3.77.3,5.62h6.78Z"/><rect class="cls-8" x="76.84" y="323.02" width="7.17" height="4.47"/><rect class="cls-8" x="62.7" y="323.02" width="7.17" height="4.47"/><path class="cls-8" d="M41.57,259.66h-4q.33,2.83.67,5.63h3.36Z"/><path class="cls-8" d="M41.57,272.33H39.15c.27,1.89.54,3.77.83,5.63h1.59Z"/><path class="cls-8" d="M41.57,247H36.24c.18,1.89.36,3.76.54,5.63h4.79Z"/><path class="cls-8" d="M41.57,234.32H35.23c.13,1.89.28,3.76.42,5.63h5.92Z"/><path class="cls-8" d="M133.42,247v5.63h5.91q.31-2.87.58-5.63Z"/><path class="cls-8" d="M140.58,234.32h-7.16V240h7.06c0-.54.07-1.07.1-1.59Z"/><path class="cls-8" d="M133.42,259.66v5.63h4.31c.26-1.9.52-3.78.76-5.63Z"/><path class="cls-8" d="M126.44,324.49V323h-7.17v4.47h6.46C126,326.49,126.2,325.49,126.44,324.49Z"/><path class="cls-8" d="M133.42,272.33V278h2.37c.31-1.89.61-3.76.9-5.63Z"/><rect class="cls-8" x="105.13" y="323.02" width="7.17" height="4.47"/><path class="cls-8" d="M133.42,285v5.62h.14c.35-1.88.69-3.76,1-5.62Z"/><rect class="cls-8" x="48.55" y="272.33" width="7.17" height="5.62"/><rect class="cls-8" x="62.7" y="246.99" width="7.17" height="5.62"/><rect class="cls-8" x="62.7" y="234.32" width="7.17" height="5.62"/><rect class="cls-8" x="62.7" y="259.66" width="7.17" height="5.62"/><rect class="cls-8" x="48.55" y="221.65" width="7.17" height="5.62"/><rect class="cls-8" x="62.7" y="310.35" width="7.17" height="5.62"/><rect class="cls-8" x="62.7" y="221.65" width="7.17" height="5.62"/><rect class="cls-8" x="62.7" y="272.33" width="7.17" height="5.62"/><rect class="cls-8" x="62.7" y="285.01" width="7.17" height="5.62"/><rect class="cls-8" x="48.55" y="246.99" width="7.17" height="5.62"/><rect class="cls-8" x="48.55" y="234.32" width="7.17" height="5.62"/><rect class="cls-8" x="48.55" y="259.66" width="7.17" height="5.62"/><rect class="cls-8" x="62.7" y="297.68" width="7.17" height="5.62"/><rect class="cls-8" x="48.55" y="297.68" width="7.17" height="5.62"/><rect class="cls-8" x="48.55" y="310.35" width="7.17" height="5.62"/><rect class="cls-8" x="48.55" y="285.01" width="7.17" height="5.62"/></g></g></svg>