<svg xmlns="http://www.w3.org/2000/svg" viewBox="0 0 166.61 322.29"><defs><style>.cls-1{fill:#fcd9ca;}.cls-2{fill:#e94190;}.cls-3{fill:#1d1d1b;}.cls-4{fill:#fff;}.cls-5{fill:#134f76;}.cls-6{fill:#634e42;}.cls-7{fill:#878787;}</style></defs><g id="Capa_2" data-name="Capa 2"><g id="Capa_1-2" data-name="Capa 1"><path class="cls-1" d="M152.46,61.63a12.84,12.84,0,0,0-6.84,2c-.27-34.11-27.68-61.69-61.46-61.69-33.95,0-61.47,27.85-61.47,62.2,0,.34,0,.68,0,1a13,13,0,0,0-8.57-3.29C6.34,61.87,0,69,0,77.9s6.34,16,14.15,16c5.31,0,9.93-3.32,12.35-8.21a62.21,62.21,0,0,0,26.49,32l.34,92.37h61V118.33a62.23,62.23,0,0,0,26.88-31,13.62,13.62,0,0,0,11.26,6.36c7.82,0,14.15-7.18,14.15-16S160.28,61.63,152.46,61.63Z"/><rect class="cls-2" x="72.82" y="88.88" width="20.84" height="3.99" rx="1.99"/><circle class="cls-3" cx="63.36" cy="69.28" r="5.27"/><circle class="cls-3" cx="105.47" cy="69.28" r="5.27"/><path class="cls-4" d="M113.94,199.88H53V122.13c9.32,4.48,30.19,14,30.19,14s20.08-8.67,29.06-13.2l1.66-.89Z"/><rect class="cls-4" x="53.33" y="225.83" width="60.98" height="90.78"/><rect class="cls-5" x="53.33" y="199.92" width="60.98" height="106.3"/><rect class="cls-3" x="53.33" y="310.84" width="60.98" height="11.45"/><path class="cls-6" d="M126.41,119.89H114.32v-1.56A61.92,61.92,0,0,0,135.06,99C131.49,107.06,125.88,119.89,126.41,119.89ZM53,117.74A62.22,62.22,0,0,1,34.75,101.1l5,18.79H53Zm92.44-61.33c0-30-10-65-61.42-54.5C32.55-8.61,22.58,26.36,22.58,56.41c0,1.12.05,2.23.12,3.33h.09V83.29h10.5V58.47c10.4-2.55,20-8.76,24.59-17.3C64.48,28.78,72.09,17.12,84,17c11.91.1,19.52,11.76,26.12,24.15,4.58,8.59,14.29,14.81,24.76,17.33V83.29h10.5v-25C145.41,57.66,145.43,57,145.43,56.41Z"/><rect class="cls-4" x="53.37" y="197.29" width="30.54" height="14.91"/><path class="cls-7" d="M114.34,122.05l-11.59,5.44q-.14,9.9-4.83,15.49a24,24,0,0,0-5.69,15.45v41.45h22.16l0-75.94Z"/><path class="cls-7" d="M52.83,122.05l11.59,5.44q.14,9.9,4.83,15.49a23.93,23.93,0,0,1,5.69,15.45v41.45H52.79V123.94Z"/></g></g></svg>