<svg xmlns="http://www.w3.org/2000/svg" viewBox="0 0 173.32 352.22"><defs><style>.cls-1{fill:#fcd9ca;}.cls-2{fill:#3c3c3b;}.cls-3{fill:#1d1d1b;}.cls-4{fill:#fcea10;}.cls-5{fill:#fff;}.cls-6{fill:#1d71b8;}.cls-7{fill:#d60b52;}.cls-8{fill:#e94e1b;}.cls-9{fill:#95c11f;}.cls-10{fill:#615551;}.cls-11{fill:#93817c;}.cls-12{fill:#634e42;}</style></defs><g id="Capa_2" data-name="Capa 2"><g id="Capa_1-2" data-name="Capa 1"><path class="cls-1" d="M158.6,81.26a13.26,13.26,0,0,0-7.11,2.09C151.31,47.76,122.76,19,87.55,19s-63.94,29-63.94,64.7c0,.43,0,.85,0,1.27a13.59,13.59,0,0,0-8.92-3.43C6.59,81.51,0,89,0,98.19s6.59,16.67,14.72,16.67c5.55,0,10.38-3.48,12.89-8.63a64.77,64.77,0,0,0,27.48,33.18L48.2,235.52H127L119,140a64.66,64.66,0,0,0,27.82-32.06,14.22,14.22,0,0,0,11.77,6.69c8.13,0,14.72-7.47,14.72-16.68S166.73,81.26,158.6,81.26Z"/><path class="cls-2" d="M42.58,224A395.08,395.08,0,0,0,53.52,331.65h65.81A394.69,394.69,0,0,0,130.27,224Z"/><circle class="cls-3" cx="65.91" cy="89.02" r="5.48"/><circle class="cls-3" cx="109.71" cy="89.02" r="5.48"/><rect class="cls-4" x="55.48" y="328.61" width="5.43" height="6.88"/><rect class="cls-5" x="60.53" y="328.61" width="5.43" height="6.88"/><rect class="cls-6" x="71.2" y="328.61" width="5.43" height="6.88"/><rect class="cls-7" x="65.72" y="328.61" width="5.43" height="6.88"/><rect class="cls-5" x="76.53" y="328.61" width="5.43" height="6.88"/><rect class="cls-8" x="81.58" y="328.61" width="5.43" height="6.88"/><rect class="cls-9" x="92.24" y="328.61" width="5.43" height="6.88"/><rect class="cls-5" x="86.77" y="328.61" width="5.43" height="6.88"/><rect class="cls-4" x="97.91" y="328.61" width="5.43" height="6.88"/><rect class="cls-5" x="102.96" y="328.61" width="5.43" height="6.88"/><rect class="cls-9" x="113.62" y="328.61" width="5.43" height="6.88"/><rect class="cls-7" x="108.15" y="328.61" width="5.43" height="6.88"/><rect class="cls-3" x="55.48" y="335.33" width="63.44" height="16.89"/><rect class="cls-5" x="55.48" y="348.62" width="63.44" height="3.6"/><path class="cls-10" d="M90.38,118.14H83.63v-6.52h6.75Zm10.9,13.39V113.37c0-3.62-2.68-5.87-6.54-6.55l-3.43-.55a30.35,30.35,0,0,0-9.56,0l-3.37.54c-3.59.62-6.54,2.93-6.54,6.55v18.16a6.54,6.54,0,0,0,6.54,6.55H94.74A6.54,6.54,0,0,0,101.28,131.53Zm-8.41-3.08H80.26a5,5,0,0,1-5.05-5v-8c0-2.78,2.26-4.47,5.05-5h0a30.11,30.11,0,0,1,12.54,0l.07,0c2.84.6,5,2.26,5,5v8A5,5,0,0,1,92.87,128.45Z"/><path class="cls-5" d="M67.62,345H77.86a4,4,0,0,1,4,4v3.11a0,0,0,0,1,0,0H63.64a0,0,0,0,1,0,0V349A4,4,0,0,1,67.62,345Z"/><path class="cls-5" d="M96.7,345h10.23a4,4,0,0,1,4,4v3.11a0,0,0,0,1,0,0H92.72a0,0,0,0,1,0,0V349A4,4,0,0,1,96.7,345Z"/><path class="cls-11" d="M78.38,138.08a6.6,6.6,0,0,1-1.84-.27v-11a5,5,0,0,0,3.72,1.65h7.27v9.63Zm73.35-67.7V68.16h-.11c-1.49-24.72-12.36-49.94-56.75-51.55V0H84V13.13L70,3.07l-6.39,8.85,8,5.75-.52.06C31.82,17,23.46,40.56,23.46,68.26c0,.17,0,.52,0,1v34.35h11v-25a45,45,0,0,0,18.87-9.39l-3,6.84S95.47,90.11,118.5,65.61c5.38,6.29,13.56,10.83,22.24,12.93v25h11V78.79c0-.8.06-1.6.07-2.4Q151.85,73.41,151.73,70.38Z"/><rect class="cls-5" x="88.92" y="223.89" width="41.5" height="8.18"/><path class="cls-12" d="M130.48,224.21a402.76,402.76,0,0,0-10.83-78.86L88.16,167.18l-34-21.84-.43.22.68-.71h-.64a402.91,402.91,0,0,0-10.95,79.36Z"/><path class="cls-5" d="M125.24,173.09,119,139.91c-.55.11-21.33,2-21.33,2l-11.06,9.65-11.31-9.87s-19.42-2.14-20.19-2.14l-7,33.08,36.54.14V173Z"/><path class="cls-12" d="M53.73,144.85a402.91,402.91,0,0,0-10.95,79.36h87.7a402.63,402.63,0,0,0-10.42-78.94l-31.9,21.91Z"/></g></g></svg>