<svg xmlns="http://www.w3.org/2000/svg" viewBox="0 0 166.61 360.56"><defs><style>.cls-1{fill:#fcd9ca;}.cls-2{fill:#634e42;}.cls-3{fill:#878787;}.cls-4{fill:#1d1d1b;}.cls-5{fill:#fff;}.cls-6{fill:#3c3c3b;}.cls-7{fill:#93817c;}</style></defs><g id="Capa_2" data-name="Capa 2"><g id="Capa_1-2" data-name="Capa 1"><path class="cls-1" d="M152.46,88.68a12.84,12.84,0,0,0-6.84,2c-.27-34.16-27.68-65.63-61.46-65.63-33.95,0-61.47,31.79-61.47,66.13,0,.35,0,.69,0,1a13.06,13.06,0,0,0-8.57-3.3C6.34,88.91,0,96.09,0,104.94s6.34,16,14.15,16c5.31,0,9.93-3.31,12.35-8.21a62.24,62.24,0,0,0,26.48,32L50.33,248.37h67l-3-103a62.21,62.21,0,0,0,26.85-31,13.64,13.64,0,0,0,11.26,6.36c7.82,0,14.15-7.18,14.15-16S160.28,88.68,152.46,88.68Z"/><path class="cls-2" d="M91.94,146.41H75.58A6.54,6.54,0,0,1,69,139.87V121.7c0-3.61,2.95-5.92,6.54-6.54l3.36-.55a30.12,30.12,0,0,1,9.57,0l3.43.55c3.86.68,6.54,2.93,6.54,6.54v18.17A6.54,6.54,0,0,1,91.94,146.41Zm3.17-14.67v-8c0-2.79-2.2-4.45-5-5H90a30.16,30.16,0,0,0-12.55,0h0c-2.78.57-5,2.26-5,5v8a5,5,0,0,0,5,5H90.07A5,5,0,0,0,95.11,131.74Z"/><rect class="cls-3" x="53.48" y="336.94" width="60.62" height="6.88"/><rect class="cls-4" x="53.48" y="343.67" width="60.96" height="16.89"/><rect class="cls-5" x="53.48" y="356.95" width="60.96" height="3.6"/><path class="cls-5" d="M65.22,353.35H74.9a3.9,3.9,0,0,1,3.9,3.9v3.19a0,0,0,0,1,0,0H61.32a0,0,0,0,1,0,0v-3.19A3.9,3.9,0,0,1,65.22,353.35Z"/><path class="cls-5" d="M93.16,353.35h9.68a3.9,3.9,0,0,1,3.9,3.9v3.19a0,0,0,0,1,0,0H89.26a0,0,0,0,1,0,0v-3.19A3.9,3.9,0,0,1,93.16,353.35Z"/><circle class="cls-4" cx="63.36" cy="96.33" r="5.27"/><circle class="cls-4" cx="105.47" cy="96.33" r="5.27"/><path class="cls-6" d="M127.19,256.88H40.45L53,150l0-.86c6.59,6.46,18,13.12,31.32,13.12,12.17,0,24-7.84,30-13.77v3.58Z"/><polygon class="cls-6" points="114.32 336.65 53.33 336.65 44.86 254.23 124.19 254.23 114.32 336.65"/><path class="cls-6" d="M53,149.17H65.44c7,0,11.08,5.6,12.69,12.7v1.77H60l-6.52-12.82"/><path class="cls-6" d="M114,149.17H101.56c-7,0-10.56,5.6-12.69,12.7v1.77H107l6.53-12.82"/><path class="cls-5" d="M78.13,161.87H88.87S83.5,183.58,83.65,183Z"/><path class="cls-2" d="M33.09,125.76l6.36,24h13.4l.13-5A62.09,62.09,0,0,1,33.09,125.76Z"/><path class="cls-2" d="M137.27,122.46a62,62,0,0,1-22.92,22.9l.12,4.4h11.66c-.77,0,11.51-27.3,11.51-27.3Z"/><path class="cls-2" d="M127.1,35.93l8.05-11.15L127,18.89l.05-.06-8.69-6.27-17.47,24.2L92,30.37l17.53-24.3.6.44.09-.12L101.39,0,87.24,19.6,79.53,14,62.93,37l-8.85-6.39,1.29-1.8c-24,7.65-31.14,25.87-32.52,46.07h-.06v1q-.21,3.72-.21,7.5c0,1.12.05,2.23.12,3.33h.09v21.92h10.5V85.63l.1,0v-12a13,13,0,0,1,6.21-11.1L55.11,53a25.45,25.45,0,0,1,13.32-3.76H99.66A25.47,25.47,0,0,1,113,53l15.51,9.53a13,13,0,0,1,6.21,11.1v12l.19,0v24.69h10.5V86.73c.07-1.08.12-2.17.12-3.27C145.51,64.87,142.13,46.92,127.1,35.93Z"/><line class="cls-6" x1="128.08" y1="254.74" x2="128.08" y2="149.76"/><path class="cls-7" d="M87,127.69H80.26v-6.52H87ZM79.53,14,70.68,7.64l-16.6,23L62.93,37Zm21.35,22.73L92,30.37l17.53-24.3,8.86,6.4Z"/></g></g></svg>