<svg xmlns="http://www.w3.org/2000/svg" viewBox="0 0 164.6 352.22"><defs><style>.cls-1{fill:#fcd9ca;}.cls-2{fill:#878787;}.cls-3{fill:#1d1d1b;}.cls-4{fill:#634e42;}.cls-5{fill:#3c3c3b;}.cls-6{fill:#e94190;}</style></defs><g id="Capa_2" data-name="Capa 2"><g id="Capa_1-2" data-name="Capa 1"><path class="cls-1" d="M150.63,87.61a13.14,13.14,0,0,0-6.77,1.89c-.26-32.12-27.34-58.08-60.71-58.08C49.61,31.42,22.42,57.64,22.42,90c0,.32,0,.64,0,1A13.22,13.22,0,0,0,14,87.84c-7.72,0-14,6.75-14,15.09S6.26,118,14,118a13.85,13.85,0,0,0,12.2-7.73,59.31,59.31,0,0,0,26.17,30.15l.34,87h60.25V141a59.53,59.53,0,0,0,26.56-29.18,13.63,13.63,0,0,0,11.13,6c7.72,0,14-6.76,14-15.09S158.35,87.61,150.63,87.61Z"/><path class="cls-2" d="M52.17,229.41h61l0-85.64v-3.59c-5.94,5.94-17.79,13.77-30,13.77-13.34,0-24.73-6.65-31.32-13.11l0,.86"/><circle class="cls-3" cx="62.2" cy="87.99" r="5.27"/><circle class="cls-3" cx="104.31" cy="87.99" r="5.27"/><rect class="cls-2" x="52.17" y="336.14" width="60.98" height="4.63"/><rect class="cls-3" x="52.17" y="340.77" width="60.98" height="11.45"/><path class="cls-4" d="M93.38,125.08a5,5,0,0,1-4.74,3.37H76a5,5,0,0,1-4.74-3.37H67.61v6.45a6.55,6.55,0,0,0,6.55,6.55H90.51a6.55,6.55,0,0,0,6.55-6.55v-6.45Z"/><path class="cls-4" d="M146.18,76.24a62,62,0,0,0-49.9-61.08V0H85.36V13.13L71.42,3.07,65,11.92l5.33,3.85A62,62,0,0,0,23.25,76.13H23V102h10.5V76.13h-.15V67.61h61.9V58L132,68.44l3.36,1v6.68h-.07V102h10.85V78.85C146.15,78,146.18,77.12,146.18,76.24Z"/><rect class="cls-5" x="51.85" y="157.86" width="61.4" height="5.61"/><rect class="cls-5" x="51.85" y="167.88" width="61.4" height="5.61"/><rect class="cls-5" x="51.85" y="178.72" width="61.4" height="5.61"/><rect class="cls-5" x="51.85" y="188.74" width="61.4" height="5.61"/><rect class="cls-5" x="51.85" y="197.94" width="61.4" height="5.61"/><rect class="cls-5" x="51.85" y="207.96" width="61.4" height="5.61"/><rect class="cls-5" x="51.85" y="217.86" width="61.4" height="5.61"/><rect class="cls-5" x="52.17" y="229.41" width="60.98" height="106.73"/><rect class="cls-6" x="71.9" y="112.1" width="20.84" height="3.99" rx="1.99"/><rect class="cls-4" x="79" y="115.98" width="6.76" height="6.52"/></g></g></svg>