<svg xmlns="http://www.w3.org/2000/svg" viewBox="0 0 192.27 121.34"><defs><style>.cls-1{fill:#1d1d1b;}.cls-2{fill:#fff;}</style></defs><g id="Capa_2" data-name="Capa 2"><g id="Capa_1-2" data-name="Capa 1"><rect class="cls-1" x="45.14" y="116.36" width="138.5" height="4.81"/><path class="cls-2" d="M111.8,69.64c-.32-1.1-.66-2.18-1-3.26,6.8-8,9.45-17.85,5.94-30.11C108.79,8.61,76.64-6.44,44.9,2.65S-6.15,41.54,1.78,69.2c3.51,12.26,11,19.23,21,22.4.26,1.1.54,2.2.86,3.3q.87,3,1.95,5.9L42.19,109,45.08,119l9.29-2.66L53,111.49l3.71-1.07L59.42,120l9.29-2.66L66,107.76l3.71-1.06,3.93,13.69,9.28-2.66L79,104,82.68,103l2.74,9.56,9.29-2.66L92,100.31l3.71-1.06,1.4,4.88,9.29-2.66L103.48,91.4l9.79-15.72C112.86,73.67,112.38,71.66,111.8,69.64Z"/><path class="cls-2" d="M187.18,103.48a9.46,9.46,0,0,0,5.07-8.33,9.69,9.69,0,0,0-19.38,0,9.06,9.06,0,0,0,.58,3.18l-44.76.05a9.29,9.29,0,0,0,.57-3.18,9.69,9.69,0,0,0-19.38,0,9.44,9.44,0,0,0,5.09,8.32,9.46,9.46,0,0,0-5.07,8.33,9.69,9.69,0,0,0,19.38,0,9,9,0,0,0-.27-2.16l44.14,0a9,9,0,0,0-.26,2.16,9.69,9.69,0,0,0,19.38,0A9.42,9.42,0,0,0,187.18,103.48Z"/><path class="cls-1" d="M60.11,69.43A13.88,13.88,0,1,1,43,59.91,13.88,13.88,0,0,1,60.11,69.43Zm18.54-21A13.88,13.88,0,1,0,95.82,58,13.87,13.87,0,0,0,78.65,48.45ZM76.57,85.87h0a3.09,3.09,0,0,1-3.36-1.17l-2.55-3.58a2.77,2.77,0,1,0-5.33,1.53l0,6.45-2.52.72a2.66,2.66,0,0,0-2,2.73,2.61,2.61,0,0,0,3.31,2.29l14-4a2.6,2.6,0,0,0,1.74-3.34A2.7,2.7,0,0,0,76.57,85.87Z"/></g></g></svg>