<svg xmlns="http://www.w3.org/2000/svg" viewBox="0 0 166.61 162.28"><defs><style>.cls-1{isolation:isolate;}.cls-2{fill:#fcd9ca;}.cls-3{fill:#ffed00;}.cls-4{fill:#1d1d1b;}.cls-5{fill:#e94e1b;}.cls-6{fill:#bc7b45;}.cls-7{fill:#e94190;}.cls-8{fill:#f8c9df;mix-blend-mode:multiply;}</style></defs><g class="cls-1"><g id="Capa_2" data-name="Capa 2"><g id="Capa_1-2" data-name="Capa 1"><path class="cls-2" d="M152.46,69.22a12.93,12.93,0,0,0-8,2.79C144.15,38,116.78,10.46,83,10.46S22,37.89,21.59,71.87a12.88,12.88,0,0,0-7.44-2.41C6.33,69.46,0,76.64,0,85.49s6.33,16,14.15,16a13.7,13.7,0,0,0,11.47-6.67,61.66,61.66,0,0,0,48.83,39.38v11.41h19.9V133.79A61.77,61.77,0,0,0,140.72,94.2a13.78,13.78,0,0,0,11.74,7.08c7.82,0,14.15-7.18,14.15-16S160.28,69.22,152.46,69.22Z"/><polygon class="cls-3" points="94.35 145.62 74.45 145.62 74.45 136.06 84.07 140.66 94.35 135.75 94.35 145.62"/><rect class="cls-2" x="74.25" y="151.89" width="20.33" height="7.51"/><rect class="cls-4" x="74.23" y="159.52" width="20.58" height="2.76"/><rect class="cls-5" x="74.24" y="144.99" width="20.19" height="9.16"/><path class="cls-6" d="M144.51,71.08c0-32-23.91-58.36-54.64-61.8V0H79.38V6.91L70.83.75,64.69,9.26,67.11,11A62.08,62.08,0,0,0,21.57,71.08c0,1.09,0,2.16.1,3.23V90.24H32.16V74.89H133.9V90.24h10.5V74.63C144.46,73.46,144.51,72.28,144.51,71.08Z"/><rect class="cls-7" x="77.1" y="103.93" width="15.45" height="3.99" rx="1.99"/><circle class="cls-4" cx="63.36" cy="90.7" r="3.81"/><circle class="cls-4" cx="106.27" cy="90.7" r="3.82"/><path class="cls-8" d="M110.78,96.32a7.7,7.7,0,0,1-7,1.55.91.91,0,0,0-.81,1.58l.06.06c3.16,3.07,8.08,3.44,11.12.83,3.35-2.86,3.06-7.83.33-11.82-1.17-1.72-2.24-1.8-1.79-1A7.08,7.08,0,0,1,110.78,96.32Z"/></g></g></g></svg>