<svg xmlns="http://www.w3.org/2000/svg" viewBox="0 0 166.61 298.47"><defs><style>.cls-1{fill:#fcd9ca;}.cls-2{fill:#878787;}.cls-3{fill:#e94190;}.cls-4{fill:#1d1d1b;}.cls-5{fill:#fff;}.cls-6{fill:#634e42;}.cls-7{fill:#f9b233;}.cls-8{fill:#95c11f;}.cls-9{fill:#1d71b8;}</style></defs><g id="Capa_2" data-name="Capa 2"><g id="Capa_1-2" data-name="Capa 1"><path class="cls-1" d="M152.46,75.41a12.84,12.84,0,0,0-6.84,2c-.27-34.11-27.68-61.69-61.46-61.69-33.95,0-61.47,27.85-61.47,62.2,0,.34,0,.68,0,1a13,13,0,0,0-8.57-3.29C6.33,75.65,0,82.82,0,91.68s6.33,16,14.15,16c5.31,0,9.93-3.32,12.35-8.21a62,62,0,0,0,37.44,37.15v68.78h40V136.82a61.91,61.91,0,0,0,37.31-35.71,13.62,13.62,0,0,0,11.26,6.36c7.82,0,14.15-7.18,14.15-16S160.28,75.41,152.46,75.41Z"/><rect class="cls-2" x="80.48" y="142.98" width="6.35" height="12.93"/><rect class="cls-3" x="72.82" y="113.51" width="20.84" height="3.99" rx="1.99"/><circle class="cls-4" cx="63.36" cy="97.54" r="5.27"/><circle class="cls-4" cx="105.47" cy="97.54" r="5.27"/><rect class="cls-5" x="63.94" y="282.29" width="40.12" height="5.12"/><rect class="cls-2" x="63.94" y="203.55" width="40.12" height="78.83"/><rect class="cls-4" x="63.94" y="287.02" width="40.12" height="11.45"/><path class="cls-6" d="M145.63,77.92c0-32.4-24.49-59-55.76-61.92V0H79.38V12.62L66,3l-6.14,8.51,8.72,6.29A62.11,62.11,0,0,0,22.69,77.92c0,1.08,0,2.16.1,3.23V97.08h10.5V79.92a31.54,31.54,0,0,0,16.1-12.71l22-34.28c2.11,5.49,4.33,10.84,6.76,15.92a58.28,58.28,0,0,0,52.55,32.88H135V97.08h10.5V81.47C145.59,80.29,145.63,79.11,145.63,77.92Z"/><path class="cls-5" d="M83.81,154.66s-9.28-3-19.87-7.49V212.8H77.62l5.57-9.47,6.06,9.47h14.64v-66Z"/><polygon class="cls-3" points="71.61 151.15 64.83 154.59 73.71 162.37 71.61 151.15"/><polygon class="cls-7" points="103.91 158.44 103.88 151.49 92.27 154.5 103.91 158.44"/><polygon class="cls-7" points="77.67 202.72 73.94 196.21 66.25 205.17 77.67 202.72"/><polygon class="cls-3" points="100.59 185.79 102.7 177.63 90.66 178.48 100.59 185.79"/><polygon class="cls-8" points="84.75 161.57 78.75 167.49 89.58 172.17 84.75 161.57"/><polygon class="cls-8" points="86.4 199.94 94.58 203.65 95.4 191.51 86.4 199.94"/><polygon class="cls-9" points="68.81 182.62 74.47 188.86 79.59 178.22 68.81 182.62"/><polygon class="cls-2" points="60.81 135.6 76.43 135.98 86.23 135.98 86.23 142.97 76.43 142.97 60.81 139.65 60.81 135.6"/><polygon class="cls-2" points="106.45 135.6 90.83 135.98 81.03 135.98 81.03 142.97 90.83 142.97 106.45 139.65 106.45 135.6"/><path class="cls-5" d="M77.4,135.78H89.86a0,0,0,0,1,0,0v0a3.56,3.56,0,0,1-3.56,3.56H81a3.56,3.56,0,0,1-3.56-3.56v0A0,0,0,0,1,77.4,135.78Z"/></g></g></svg>