<svg xmlns="http://www.w3.org/2000/svg" viewBox="0 0 166.61 219.34"><defs><style>.cls-1{fill:#fff;}.cls-2{fill:#fcd9ca;}.cls-3{fill:#ffed00;}.cls-4{fill:#1d1d1b;}.cls-5{fill:#1d71b8;}.cls-6{fill:#e94190;}.cls-7{fill:#906035;}.cls-8{fill:#e4201a;}.cls-9{fill:#312783;}.cls-10{fill:#ed6b06;}.cls-11{fill:#029139;}</style></defs><g id="Capa_2" data-name="Capa 2"><g id="Capa_1-2" data-name="Capa 1"><path class="cls-1" d="M98.18,190.48H69.77V144.92L70,145a43.64,43.64,0,0,0,27,0l1.18-.39Z"/><path class="cls-2" d="M152.46,75.41a12.84,12.84,0,0,0-6.84,2c-.27-34.11-27.68-61.69-61.46-61.69-33.95,0-61.47,27.85-61.47,62.2,0,.34,0,.68,0,1a13,13,0,0,0-8.57-3.29C6.34,75.65,0,82.82,0,91.68s6.34,16,14.15,16c5.31,0,9.93-3.32,12.35-8.21a61.82,61.82,0,0,0,43.27,38.88v6.54L70,145a43.64,43.64,0,0,0,27,0l1.18-.39V185h0V138.47a61.78,61.78,0,0,0,43-37.36,13.62,13.62,0,0,0,11.26,6.36c7.82,0,14.15-7.18,14.15-16S160.28,75.41,152.46,75.41Z"/><rect class="cls-3" x="69.16" y="213.7" width="29.02" height="2.76"/><rect class="cls-4" x="68.8" y="216.57" width="29.38" height="2.76"/><rect class="cls-5" x="69.36" y="190.16" width="28.82" height="12.03"/><rect class="cls-2" x="69.36" y="201.62" width="28.82" height="12.03"/><rect class="cls-6" x="72.82" y="113.51" width="20.84" height="3.99" rx="1.99"/><circle class="cls-4" cx="63.36" cy="97.54" r="5.27"/><circle class="cls-4" cx="105.47" cy="97.54" r="5.27"/><path class="cls-7" d="M145.63,77.92c0-32.4-24.49-59-55.76-61.92V0H79.38V12.62L66,3l-6.14,8.51,8.72,6.29A62.11,62.11,0,0,0,22.69,77.92c0,1.08,0,2.16.1,3.23V97.08h10.5V89.84H96V81.73h39V97.08h10.5V81.47C145.59,80.29,145.63,79.11,145.63,77.92Z"/><path class="cls-8" d="M93.84,167.36a14.21,14.21,0,0,1-10.67,4.77c-4.27,0-7.78-1.91-9.56-4.77a8.63,8.63,0,0,0-.36,1.6,7.7,7.7,0,0,0,1.33,5.36H91.24A9.49,9.49,0,0,0,93.82,169,7.8,7.8,0,0,0,93.84,167.36Z"/><path class="cls-9" d="M91.33,174.32H74.68a8.49,8.49,0,0,0,3.43,2.84l-.12,1h9l.11-.95A12.12,12.12,0,0,0,91.33,174.32Z"/><polygon class="cls-8" points="86.91 178.78 77.91 178.78 78 178.01 87 178.01 86.91 178.78"/><polygon class="cls-8" points="86.73 180.27 77.74 180.27 77.83 179.5 86.82 179.5 86.73 180.27"/><polygon class="cls-3" points="86.82 179.52 77.83 179.52 77.92 178.74 86.91 178.74 86.82 179.52"/><path class="cls-4" d="M77.74,180.27l-.15,1.32h9l.15-1.32Zm1.94,1.3-.63-1.29h.52l.63,1.29Zm.93,0L80,180.28h.51l.63,1.29Zm2.43,0,.93-1.29h.52l-.93,1.29Zm1.45,0H84l.93-1.29h.52Z"/><path class="cls-10" d="M84.56,159.82c-5,0-9.59,3.27-10.92,7.58,1.79,2.84,5.28,4.73,9.53,4.73a14.21,14.21,0,0,0,10.56-4.66C93.43,163.13,89.63,159.82,84.56,159.82Zm-2.39,7.63H79.92l.33-2.8a1.23,1.23,0,0,1,1.24-1,.92.92,0,0,1,1,1Zm4.73,0H84.66l.32-2.8a1.24,1.24,0,0,1,1.24-1,.94.94,0,0,1,1,1Z"/><path class="cls-11" d="M94.59,157.84a32.89,32.89,0,0,1-6.71,1.38c-1.6,0-2.83-.62-2.74-1.38s1.46-1.39,3.06-1.39A28.42,28.42,0,0,1,94.59,157.84Z"/><path class="cls-11" d="M76.83,157.76a24.37,24.37,0,0,1,5.1-1c1.22,0,2.16.47,2.09,1s-1.11,1.05-2.33,1.05A21.78,21.78,0,0,1,76.83,157.76Z"/><circle class="cls-1" cx="88.88" cy="172.07" r="2.99"/><polygon class="cls-4" points="86.44 171.63 86.02 172.37 86.44 173.1 87.29 173.1 87.72 172.37 87.29 171.63 86.44 171.63"/><polygon class="cls-4" points="88.83 169.55 87.98 169.55 87.56 170.28 87.98 171.02 88.83 171.02 89.26 170.28 88.83 169.55"/><polygon class="cls-4" points="89.4 173.12 88.97 173.85 89.4 174.59 90.25 174.59 90.67 173.85 90.25 173.12 89.4 173.12"/><polygon class="cls-4" points="91.19 170.82 90.34 170.82 89.92 171.55 90.34 172.29 91.19 172.29 91.62 171.55 91.19 170.82"/><polygon class="cls-11" points="80.2 181.57 79.68 181.57 79.05 180.28 79.57 180.28 80.2 181.57"/><polygon class="cls-11" points="81.13 181.57 80.61 181.57 79.98 180.28 80.5 180.28 81.13 181.57"/><polygon class="cls-11" points="83.97 181.57 84.49 181.57 85.42 180.28 84.9 180.28 83.97 181.57"/><polygon class="cls-11" points="83.04 181.57 83.56 181.57 84.49 180.28 83.97 180.28 83.04 181.57"/></g></g></svg>